<svg xmlns="http://www.w3.org/2000/svg" width="149.236" height="81.09" viewBox="0 0 149.236 81.09"><defs><style>.a{opacity:0.98;}.b{fill:#e5b0b4;}.c{fill:#eecf70;}.d{fill:#da8b39;}.d,.y{opacity:0.2;}.e{fill:#eea800;}.f{fill:#221e50;}.g{fill:#b5451e;}.h{fill:#d88939;}.i{fill:#f4ac00;}.j{fill:#d4959a;}.k{fill:#555ca3;}.l{fill:#c3592d;}.m{fill:#5061ce;}.n{fill:#2b295e;}.o{fill:#d58b2a;}.p{fill:#d3652c;}.q{fill:#ffbc78;}.r,.s{fill:#e28c35;}.r{opacity:0.6;}.t,.y{fill:#333381;}.u{fill:#dde3f2;}.v{fill:#aab4cd;}.w{fill:#ced4ea;}.x{fill:#d25c2a;}</style></defs><g class="a"><g transform="translate(0 0)"><path class="b" d="M1451.428,1280.111h0a1.019,1.019,0,0,1,.151.019,26.755,26.755,0,0,0,2.986-.31s-.717,3.018-1.11,3.135c-1.067.314-1.964,1.254-2.86,1.47a1.1,1.1,0,0,1-1.343-.86h0a1.176,1.176,0,0,1-.038-.2h0a1.092,1.092,0,0,1,.115-.609l1.06-2.054A1.1,1.1,0,0,1,1451.428,1280.111Z" transform="translate(-1349.325 -1241.401)"/><path class="c" d="M1498.542,1274.03l-1.847.385-.376,3.461,2.282-.01Z" transform="translate(-1392.79 -1236.059)"/><path class="d" d="M1498.542,1274.03l-1.847.385-.376,3.461,2.282-.01Z" transform="translate(-1392.79 -1236.059)"/><path class="e" d="M1525,1020.319l.06,3.836s3.264.126,6.535,0c2.875-.113,5.756-.426,6.433-1.194.774-.877,1.329-7.628,1.679-13.734.3-5.34.453-10.187.453-10.187s-2.469.974-2.908,1.272c-1.868,1.265-4.634,17.689-4.634,17.689S1525.9,1019.967,1525,1020.319Z" transform="translate(-1419.251 -982.35)"/><path class="f" d="M1292.482,1793.216l-.731,2.786h-7.591S1286.057,1792.324,1292.482,1793.216Z" transform="translate(-1197.049 -1714.936)"/><path class="f" d="M1524.915,1711.32l1.1,2.663-6,4.655S1519.255,1714.488,1524.915,1711.32Z" transform="translate(-1414.623 -1639.506)"/><path class="g" d="M1615.908,1270.868c1.492,2.516,4.321,5.316,11.1,6.23,3.245.429,5.017.443,9.924-.721,9.139-2.167,13.52-8.823,13.659-17.869-.078-5.06-1.2-10.51-5.593-13.014-2.415-1.376-10.356-2.747-17.082.8C1611.973,1254.71,1613.18,1266.281,1615.908,1270.868Z" transform="translate(-1501.608 -1208.392)"/><path class="h" d="M1694.971,1626.535h-10.246V1611.49h-2.754v15.045h-9.85a.97.97,0,1,0,0,1.935h22.851a.97.97,0,0,0,0-1.935Z" transform="translate(-1554.028 -1547.402)"/><path class="g" d="M1653.917,1541.68a77.579,77.579,0,0,0-15.643-2.073h-.343c-1.367,0-2.754.041-4.139.155-4.411.355-8.993.749-12.914,1.095h-.018a11.287,11.287,0,0,0,1.131,2.709c1.492,2.516,4.321,5.316,11.1,6.23,3.245.429,5.017.444,9.924-.721C1648.085,1547.865,1651.688,1545.286,1653.917,1541.68Z" transform="translate(-1507.692 -1481.081)"/><path class="i" d="M1702.575,1021c.478.48,5.771.619,10.026.782,3.744.143,7.178.191,7.178.191.774-.964,1.581-2.8,1.945-5.9a24.746,24.746,0,0,0,3.007-.559,19.96,19.96,0,0,0,5.882-2.439.626.626,0,0,0,.272-.661c-.542-2.463-3.578-15.281-8.792-20.648-.183-.188-.652-.828-7.57-2.182-.31.851-3.351,2.257-6.01,2.12a18.406,18.406,0,0,1-3.625-2.012c-.087.008-2.312.619-2.312.619C1699.477,1003.862,1701.9,1020.323,1702.575,1021Zm18.986-15.7a15.778,15.778,0,0,0,.817,1.794c.767,1.4,1.578,2.61,1.578,2.61a1.959,1.959,0,0,1-.789.448c-.345.142-.785.3-1.279.464,0-1.3.256-.566.133-2.293A8.831,8.831,0,0,0,1721.561,1005.3Z" transform="translate(-1581.663 -973.623)"/><path class="j" d="M1774.606,921.147s-.581,4.759-.646,5.433l3.852.594,2.53-2.1a11.624,11.624,0,0,1-1-5.829Z" transform="translate(-1648.943 -908.736)"/><path class="d" d="M1850.08,1191.817a21.894,21.894,0,0,1,7.109,1.634c.774-.964,1.65-4.244,2.012-7.344a24.743,24.743,0,0,0,3.007-.559c-.564-1.95-1.147-3.936-1.565-5.36-.345.142-.785.3-1.278.464,0-1.3.256-.566.133-2.293-.117-1.647-.464-4.311-1.441-4.474-.867-.144-1.077,3.914-1.47,7.652a25.271,25.271,0,0,1-.813,4.763,3.212,3.212,0,0,1-.472.967C1853.7,1189.291,1849.644,1190.578,1850.08,1191.817Z" transform="translate(-1719.142 -1143.66)"/><path class="b" d="M1756.3,838.154s5.519.252,5.623-3.187.886-5.727-2.631-6.029-4.244.985-4.558,2.124S1754.867,838,1756.3,838.154Z" transform="translate(-1631.116 -825.372)"/><path class="k" d="M1751.428,792.985a4.928,4.928,0,0,0-5.328-4.425c-4.916.165-2.79-4.489,1.435-5.171,0,0-.441,1.638,2.217,1.9C1755.328,785.831,1751.923,792.26,1751.428,792.985Z" transform="translate(-1620.622 -783.39)"/><path class="l" d="M1781.417,1014.4l-2.534-.269a.375.375,0,0,0-.256.469,3.151,3.151,0,0,0,1.211,1.534C1780.153,1016.187,1782.1,1015.133,1781.417,1014.4Z" transform="translate(-1653.241 -996.273)"/><path class="m" d="M1374.006,1395.054s-3.193,8.309-13.627,8.507c-16.387.309-16.386.372-16.386.372s1.25,7.932-10.376,18.7h-6.546L1339.638,1392l21.385-.806s12.556-.958,13.732,1.1C1375.01,1392.741,1374.006,1395.054,1374.006,1395.054Z" transform="translate(-1236.639 -1343.946)"/><path class="n" d="M1445.209,1311.121l-14.073-6.586a8.043,8.043,0,0,0-5.833.109l-2.017.83a1.942,1.942,0,0,0-1.134,2.315l7.7,30.563,6.171-1.9s.872-11.154-.7-16.4c-1.223-4.089-2.842-8.031-2.842-8.031Z" transform="translate(-1324.298 -1263.746)"/><path class="o" d="M1788.773,1318.64c9.139-2.167,13.52-8.823,13.659-17.869-.06-3.925-.747-8.083-3.1-10.921-3.239,3.405-10.67,11.586-15.644,19.327a35.489,35.489,0,0,0-4.845,10.182h.01C1782.094,1319.79,1783.867,1319.8,1788.773,1318.64Z" transform="translate(-1653.445 -1250.654)"/><path class="p" d="M1806.445,1303.283c-.058-3.83-.714-7.883-2.936-10.713-3.318,3.5-10.581,11.516-15.468,19.122a34.963,34.963,0,0,0-4.852,10.224c3.042.387,4.857.362,9.6-.763C1801.925,1318.981,1806.306,1312.323,1806.445,1303.283Z" transform="translate(-1657.459 -1253.164)"/><path class="d" d="M1751.593,980.87a5.817,5.817,0,0,0,1.533,2.794l-1.715,2.231s-2.077-2.459-2.017-4.22A13.855,13.855,0,0,1,1751.593,980.87Z" transform="translate(-1626.278 -965.587)"/><path class="i" d="M1751.572,980.87a5.123,5.123,0,0,0,1.432,2.683l-1.651,2.029a9.021,9.021,0,0,1-1.984-3.907A14.028,14.028,0,0,1,1751.572,980.87Z" transform="translate(-1626.257 -965.587)"/><path class="d" d="M1800.67,980.87s-2.624,2.485-4.339,2.683l1.175,2.931s5.108-3.027,5.125-4.84A7.634,7.634,0,0,0,1800.67,980.87Z" transform="translate(-1669.582 -965.587)"/><path class="i" d="M1800.549,979.2s-2.467,2.615-4.179,2.813l.951,2.7s5.146-2.9,5.161-4.711A7.212,7.212,0,0,0,1800.549,979.2Z" transform="translate(-1669.619 -964.046)"/><path class="i" d="M1910.085,1247.964s-7.624,2.083-8.325,2.915l.06,3.836s7.972.5,13.73-3.1a.472.472,0,0,0,0-.8C1914.161,1249.933,1910.824,1247.871,1910.085,1247.964Z" transform="translate(-1766.852 -1212.007)"/><path class="d" d="M1610.25,1111.239c2.874-.113,5.755-.426,6.433-1.194.774-.878.03-10.509.379-16.615-2.754,5.6-.714,10.072-1.238,13C1615.3,1109.331,1612.7,1110.646,1610.25,1111.239Z" transform="translate(-1497.903 -1069.436)"/><path class="n" d="M1559.6,1453.925a3.731,3.731,0,0,0,.924-.321,3.52,3.52,0,0,1,.84-.3c3.251-.474,6.2-1.055,8.8-1.567l2.005-.392c5.917-1.14,9.275-1.764,9.309-1.768h0c-.033,0-3.416.428-9.342,1.568q-.983.19-2.006.393c-2.6.511-5.542,1.091-8.788,1.565a3.831,3.831,0,0,0-.9.31,3.732,3.732,0,0,1-.865.3C1558.724,1453.842,1558.745,1454.043,1559.6,1453.925Z" transform="translate(-1450.572 -1398.022)"/><path class="n" d="M1398.79,1553.968l.057.015c2-3.577,4.162-7.894,6.165-12.481.31-.7.619-1.424.923-2.149.337-.8.673-1.61,1-2.411a2.885,2.885,0,0,0,.16-.74h0c-.059-.086-.116-.174-.173-.262,0,.007,0,.014,0,.021a3.6,3.6,0,0,1-.17.9c-.326.8-.662,1.611-1,2.409-.309.723-.619,1.446-.921,2.147C1402.831,1546,1400.791,1550.4,1398.79,1553.968Z" transform="translate(-1302.808 -1477.699)"/><path class="p" d="M1765.45,1034.776s.48,4.533.566,6.05c.24,4.267.328,17.09.328,17.09a2.918,2.918,0,0,1-.619,2.012,11.469,11.469,0,0,1-1.527,1.5,5.657,5.657,0,0,1-1.531-2.761c-.289-1.2.405-11.268,1.106-17.975a60.24,60.24,0,0,1,.933-6.011S1765.277,1034.585,1765.45,1034.776Z" transform="translate(-1638.462 -1015.213)"/><path class="b" d="M1826,1295.082l.953-1.847a.991.991,0,0,1,.933-.531h0c.045,0,2.82-.263,2.82-.263s-1.47,3.688-1.736,3.965a.516.516,0,0,1-.365.155c-.647,0-2.554-.044-2.673-.754a.953.953,0,0,1-.034-.179h0A.97.97,0,0,1,1826,1295.082Z" transform="translate(-1696.859 -1253.044)"/><path class="c" d="M1875.272,1285.68l-1.847.386-.375,3.461,2.282-.01Z" transform="translate(-1740.365 -1246.807)"/><path class="d" d="M1875.272,1285.68l-1.847.386-.375,3.461,2.282-.01Z" transform="translate(-1740.365 -1246.807)"/><path class="h" d="M962.217,1772.113H945.57c0-2.734,3.727-4.953,8.324-4.953q.363,0,.72.019C958.874,1767.4,962.217,1769.524,962.217,1772.113Z" transform="translate(-884.664 -1691.025)"/><path class="q" d="M1023.782,1325.989v34.038a1.061,1.061,0,0,1-1.057,1.058h-3.208a1.061,1.061,0,0,1-1.057-1.058v-34.038a1.062,1.062,0,0,1,1.057-1.059h3.208A1.061,1.061,0,0,1,1023.782,1325.989Z" transform="translate(-951.912 -1283.019)"/><path class="r" d="M954.614,1359.176q-.357-.02-.72-.019h-.022v-33.168a1.06,1.06,0,0,0-1.058-1.059h-.546a1.062,1.062,0,0,0-1.057,1.059v33.433c-3.28.664-5.641,2.512-5.641,4.687h16.647C962.217,1361.518,958.874,1359.393,954.614,1359.176Z" transform="translate(-884.664 -1283.019)"/><path class="s" d="M979.387,1772.371H964.18c0-2.589,3.344-4.715,7.6-4.931C976.044,1767.657,979.387,1769.782,979.387,1772.371Z" transform="translate(-901.833 -1691.283)"/><rect class="q" width="58.257" height="4.65" rx="2.325" transform="translate(38.957 40.737)"/><path class="t" d="M882.854,1135.99h17.84l-3.694,13H879.31Z" transform="translate(-823.532 -1108.702)"/><path class="k" d="M886.393,1135.99h17.84l-3.694,13H882.85Z" transform="translate(-826.798 -1108.702)"/><rect class="k" width="23.002" height="0.448" transform="translate(50.74 40.288)"/><path class="u" d="M1017.46,1208.58a1.381,1.381,0,0,1,1.006-1.262.761.761,0,0,1,1.006.759,1.381,1.381,0,0,1-1.006,1.262A.76.76,0,0,1,1017.46,1208.58Z" transform="translate(-950.99 -1174.48)"/><path class="v" d="M1615.73,1222.88h-17.84l3.694,13h17.689Z" transform="translate(-1486.5 -1188.867)"/><path class="w" d="M1612.2,1222.88h-17.84l3.694,13h17.688Z" transform="translate(-1483.243 -1188.867)"/><rect class="v" width="23.002" height="0.448" transform="translate(137.813 47.46) rotate(180)"/><path class="u" d="M1712.012,1295.49a1.381,1.381,0,0,0-1.006-1.262.761.761,0,0,0-1.006.759,1.381,1.381,0,0,0,1.006,1.262A.761.761,0,0,0,1712.012,1295.49Z" transform="translate(-1589.933 -1254.664)"/><path class="x" d="M1304,1268.377a1.4,1.4,0,0,0-.878-.016v-.412a2.205,2.205,0,0,0-.018-.269h-4.265a2.112,2.112,0,0,0-.018.269v.839a2.147,2.147,0,0,0,3.762,1.418h0a3.373,3.373,0,0,0,1.333-.628C1304.234,1269.2,1304.337,1268.586,1304,1268.377Zm-.225.774c-.108.278-.592.428-.83.486a2.152,2.152,0,0,0,.172-.708.627.627,0,0,1,.55-.289C1303.818,1268.668,1303.91,1268.8,1303.774,1269.151Z" transform="translate(-1210.575 -1230.2)"/><path class="o" d="M1303.33,1267.977v.839a2.157,2.157,0,0,0,2.15,2.151,1.973,1.973,0,0,0,.289-.021,2.157,2.157,0,0,1-1.858-2.13v-.837a2.071,2.071,0,0,1,.018-.269h-.578A2.082,2.082,0,0,0,1303.33,1267.977Z" transform="translate(-1214.736 -1230.228)"/><path class="x" d="M1305.493,1307.435h-3.655a.1.1,0,0,1-.1-.1h0a.094.094,0,0,1,.028-.069.1.1,0,0,1,.069-.028h3.657a.1.1,0,0,1,.1.1h0a.1.1,0,0,1-.1.1Z" transform="translate(-1213.269 -1266.698)"/><path class="b" d="M785.18,1735.675l2.841,2.9,1.7-1.215-2.446-5.457Z" transform="translate(-736.686 -1658.493)"/><path class="x" d="M806.16,1801.51l.653,2.161H813.3S811.638,1800.755,806.16,1801.51Z" transform="translate(-756.043 -1722.601)"/><path class="b" d="M647.25,1732.224l1.728,3.67,2.009-.584-.512-5.959Z" transform="translate(-609.431 -1656.141)"/><path class="x" d="M659.26,1801.51l.653,2.161H666.4S664.735,1800.755,659.26,1801.51Z" transform="translate(-620.512 -1722.601)"/><path class="g" d="M194.8,1259.519l0,.035a12.735,12.735,0,0,1-1.508,4.618c-1.491,2.515-4.321,5.314-11.1,6.229-.328.043-.668.084-1.015.119q-.95.1-2,.145c-.089,0-.178.008-.268.01a32.926,32.926,0,0,1-6.643-1c-5.054-1.2-8.347-3.668-10.429-6.67h0a16.208,16.208,0,0,1-1.588-2.885,22.061,22.061,0,0,1-1.641-8.313,27.44,27.44,0,0,1,.878-6.519,11.837,11.837,0,0,1,1.607-3.577,9.655,9.655,0,0,1,.614-.817,9.1,9.1,0,0,1,2.493-2.1c2.414-1.375,10.355-2.746,17.082.8C193.655,1246.131,195.518,1254.2,194.8,1259.519Z" transform="translate(-158.599 -1202.215)"/><path class="h" d="M274.61,1620.317h-9.85V1604.75h-2.754v15.566H251.759a.97.97,0,0,0,0,1.935H274.61a.97.97,0,0,0,0-1.935Z" transform="translate(-243.715 -1541.184)"/><path class="l" d="M215.917,1510.354a12.729,12.729,0,0,0,1.508-4.617v-.023c-3.935-.418-8.947-.92-13.311-1.346a42.167,42.167,0,0,0-5.589-.155,64.475,64.475,0,0,0-15.395,2.673,16.067,16.067,0,0,0,1.327,2.306h0c2.083,3,5.375,5.471,10.429,6.67a32.918,32.918,0,0,0,6.643.995c.09,0,.179-.006.268-.01q1.047-.047,2-.145c.348-.035.687-.077,1.015-.118C211.6,1515.668,214.426,1512.869,215.917,1510.354Z" transform="translate(-181.23 -1448.398)"/><path class="n" d="M246.754,960.28c-1.539-1.526-1.341-13.383-1.358-14.108a4.757,4.757,0,0,0-.843-2.969c-.406-1.109-7.018-1.673-8.676,2.554-1.064,2.716-3.786,7.994-3.786,7.994-11.123,15.433-6.7,23.048-6.7,23.048l.475-.053a2.516,2.516,0,0,1-.125-1.522l.453,1.512,8.217-1.057a24.981,24.981,0,0,1,.7-4.041l.039,4.179,1.1.059c-.437-8.813,1.436-13.14,1.99-14.212-.476,4.9,1.9,12.888,1.9,12.888l.34-.077-.77-3.994.985,3.947.955-.216q-.232-.8-.419-1.557c.262.976.419,1.557.419,1.557,2.046-2.227,5.8-2.031,5.8-2.031C249.479,969.319,246.754,960.28,246.754,960.28Z" transform="translate(-219.418 -930.098)"/><path class="n" d="M500.6,1413.65s9.845,1.563,12.256,2.7c0,0,2.8,1.172,2.975,2.2.379,2.19.478,23.649.478,23.649h-5.256s-5.294-13.49-2.682-20.818l-8.026-6.9Z" transform="translate(-473.891 -1364.873)"/><path class="j" d="M396.452,1040.789s-.637,3.7,1.669,5.451l-1.655,2.486-3.332-.163-1.242-3.215a26.34,26.34,0,0,0,.4-5.828Z" transform="translate(-373.834 -1019.698)"/><path class="b" d="M395.721,979.48s-5,.913-5.524-2.211-1.518-5.108,1.655-5.827,4,.371,4.421,1.377S397.009,979.165,395.721,979.48Z" transform="translate(-371.747 -956.674)"/><path class="n" d="M332.045,950.6s-6.232,4.8-5.682,8.351c.517,3.332-.464,3.629-1.193,3.947-1.881.82-4.348-.679-5.325-.631-.7.035,1.092-.8,2.228-2.322,3.023-4.038,2.729-9.494,3.332-9.887C329.516,947.38,332.045,950.6,332.045,950.6Z" transform="translate(-307.22 -936.176)"/><path class="k" d="M331.5,1127.571c.957-3.117,1.611-7.023.683-8.61a2.062,2.062,0,0,1-.111-.21,3.45,3.45,0,0,1-.29-1.036,17.923,17.923,0,0,0-.919-3.3l-2.764-1.11c.039.059,1.354,2.149-2.012,2.124-1.3-.01-1.848-1.189-2.222-2.068l-4.123.973s-1.574,5.068-1.186,6.721c2.759,11.748-1.559,15.722-1.559,15.722a4.352,4.352,0,0,0,1.212.464c.171.047,5.791.968,8.049,1.344.524.087.868.144.92.155,1.07.209,4.83-2.1,4.83-2.1S329.565,1133.887,331.5,1127.571Z" transform="translate(-304.74 -1087.777)"/><path class="y" d="M329.254,1229.746c-.446.864-1.566,1.141-2.994,1.214-2.26-.375-7.88-1.3-8.049-1.343a4.292,4.292,0,0,1-1.212-.465s4.321-3.974,1.565-15.722C321.909,1216.406,330.256,1227.808,329.254,1229.746Z" transform="translate(-304.74 -1180.148)"/><path class="k" d="M299.787,1413.881c-.3.624-4.226,7.692,2.295,9.576s20.626,1.375,20.626,1.375,1.5,5.911,3.341,8.513a65.238,65.238,0,0,0,8.245,8.853h6.047s-10.46-22.66-12.585-24.205c-1.555-1.13-9.376-3.132-13.7-3.8-1.053-.164-7.43-.357-9.132-.424C302.245,1413.658,299.95,1413.536,299.787,1413.881Z" transform="translate(-287.526 -1364.876)"/><path class="o" d="M182.163,1312.742c-2.863.38-4.819.489-9.924-.721-5.519-1.3-9.777-4.347-12.018-9.556a22.091,22.091,0,0,1-1.641-8.314,27.44,27.44,0,0,1,.878-6.517,11.45,11.45,0,0,1,2.221-4.393,152.9,152.9,0,0,1,14.2,17.134C178.873,1304.708,181.338,1309.116,182.163,1312.742Z" transform="translate(-158.58 -1244.556)"/><path class="p" d="M181.822,1315.036c-2.2-9.485-15.566-24.378-20.3-29.356a11.563,11.563,0,0,0-2.064,4.2,27.44,27.44,0,0,0-.878,6.521,22.093,22.093,0,0,0,1.641,8.314c2.244,5.209,6.5,8.254,12.018,9.556C177.138,1315.433,179.138,1315.379,181.822,1315.036Z" transform="translate(-158.58 -1246.807)"/><path class="t" d="M391.049,1481.15c-.3-.7-.619-1.423-.922-2.147-.337-.8-.673-1.609-1-2.409a3.589,3.589,0,0,1-.169-.9.2.2,0,0,1,0-.02l-.015.022a1.39,1.39,0,0,0-.66-.182,3.764,3.764,0,0,1-.912-.319,3.928,3.928,0,0,0-.945-.33c-3.422-.494-6.527-1.1-9.265-1.635q-1.079-.211-2.114-.41c-6.247-1.194-9.813-1.634-9.848-1.639.036,0,3.575.658,9.813,1.849q1.035.2,2.113.41c2.741.536,5.848,1.143,9.276,1.637a3.892,3.892,0,0,1,.885.31,3.869,3.869,0,0,0,.974.337c.354.048.569.145.526.209h0a2.872,2.872,0,0,0,.16.74c.327.8.662,1.613,1,2.411.31.725.619,1.449.922,2.149,2,4.586,4.161,8.9,6.165,12.481l.056-.016C395.086,1490.127,393.046,1485.726,391.049,1481.15Z" transform="translate(-349.209 -1417.951)"/><path class="b" d="M447.46,1401.76l1.161.369a2.441,2.441,0,0,1,2.73,1.41s.313.789-.317.756-.392-.105-1.281-.132a2.3,2.3,0,0,1-1.994-1.013l-.709-.47Z" transform="translate(-424.725 -1353.903)"/><path class="b" d="M677.54,1264.213l1.1-.534a2.441,2.441,0,0,1,2.949-.863s.774.355.292.767-.356.195-1.018.787a2.3,2.3,0,0,1-2.142.643l-.837.149Z" transform="translate(-637.377 -1225.538)"/><path class="k" d="M323.67,1114s-5.6.774-6.389,2.4c-1.123,2.313,0,16.69,0,16.69s3.442,2.88,10.293,4.566l.862-1.021s-7.545-5.351-7.662-5.527.146-9.6-.247-11.234S323.67,1114,323.67,1114Z" transform="translate(-304.538 -1088.414)"/><path class="k" d="M501.59,1140.937s-8.668,2.442-9.829,2.152c-.663-.166-2.64-2.684-4.219-4.822-1.194-1.618-2.162-3.019-2.162-3.019l.837-7.618s1.548.322,3.018,4.33c2.259,6.143,4.249,7.707,4.249,7.707s5.495-.423,7.767-.574l.2,1.11Z" transform="translate(-460.089 -1100.989)"/><path class="y" d="M527.34,1261.709s-8.668,2.443-9.829,2.152c-.663-.166-2.64-2.684-4.219-4.822-.018-.42.116-.795.861-.189,1.281,1.041,3.027,4.125,3.579,4.125.421,0,6.554-1.351,9.474-2Z" transform="translate(-485.839 -1221.76)"/><path class="x" d="M713.061,1269.6a3.376,3.376,0,0,0,1.334.627h0a2.147,2.147,0,0,0,3.762-1.416v-.837a2.184,2.184,0,0,0-.017-.269h-4.266a2.208,2.208,0,0,0-.017.269v.412a1.412,1.412,0,0,0-.878.016C712.639,1268.614,712.743,1269.226,713.061,1269.6Zm.251-.936a.629.629,0,0,1,.55.289,2.123,2.123,0,0,0,.171.707c-.238-.058-.722-.208-.83-.486C713.067,1268.827,713.159,1268.7,713.311,1268.669Z" transform="translate(-669.879 -1230.228)"/><path class="o" d="M748.828,1267.68h-.577a2.195,2.195,0,0,1,.017.269v.839a2.156,2.156,0,0,1-1.858,2.13,2.016,2.016,0,0,0,.29.021,2.157,2.157,0,0,0,2.146-2.151v-.837A2.046,2.046,0,0,0,748.828,1267.68Z" transform="translate(-700.917 -1230.2)"/><path class="x" d="M729.837,1307.435h3.657a.1.1,0,0,0,.1-.1h0a.1.1,0,0,0-.1-.1h-3.657a.1.1,0,0,0-.1.1h0A.1.1,0,0,0,729.837,1307.435Z" transform="translate(-685.537 -1266.698)"/></g></g></svg>